<svg width="335" height="45" viewBox="0 0 335 45" fill="none" xmlns="http://www.w3.org/2000/svg">
<g clip-path="url(#clip0_6792_77249)">
<path d="M15.2955 8.43486L30.5909 17.0004V4H0V17.0004L15.2955 8.43486Z" fill="#1A99FF"/>
<path d="M15.2955 11.801L0 20.3664V34.5909H30.5909V20.3664L15.2955 11.801Z" fill="#1A99FF"/>
<path d="M59.836 24.679L55.7977 11.6835L51.723 24.679H59.836ZM61.0844 28.6067H50.4751L48.6027 34.5904H43.5369L51.9066 8.89368H59.7992L68.2058 34.5904H62.9563L61.0844 28.6067Z" fill="black"/>
<path d="M75.4736 34.5905H70.5542V7.57239H75.4736V34.5905Z" fill="black"/>
<path d="M88.5785 31.213C91.6989 31.213 93.608 28.6434 93.608 24.9724C93.608 21.3016 91.6989 18.7315 88.5785 18.7315C85.4946 18.7315 83.5859 21.3016 83.5859 24.9724C83.5859 28.6434 85.495 31.213 88.5785 31.213ZM88.5785 14.9141C94.5988 14.9141 98.4535 18.7315 98.4535 24.9724C98.4535 31.213 94.5992 35.0307 88.5785 35.0307C82.5579 35.0307 78.7036 31.213 78.7036 24.9724C78.7036 18.7315 82.5579 14.9141 88.5785 14.9141Z" fill="black"/>
<path d="M110.53 31.213C113.54 31.213 115.376 28.6802 115.376 24.9724C115.376 21.2644 113.54 18.7315 110.53 18.7315C107.483 18.7315 105.648 21.2644 105.648 24.9724C105.648 28.6802 107.483 31.213 110.53 31.213ZM109.025 14.9141C111.705 14.9141 114.164 16.2357 115.523 18.8787V15.3547H120.075V41.9324H115.156V31.5437C113.761 33.8561 111.485 35.0307 108.988 35.0307C104.29 35.0307 100.766 31.3231 100.766 24.9724C100.766 18.6219 104.29 14.9141 109.025 14.9141Z" fill="black"/>
<path d="M131.381 31.6171C134.464 31.6171 136.484 29.3779 136.484 26.5879V25.7437L132.079 26.1841C129.692 26.4044 128.26 27.3217 128.26 29.0841C128.26 30.5524 129.252 31.6171 131.381 31.6171ZM131.454 23.2474L136.484 22.7331V21.779C136.484 19.7967 135.345 18.4013 132.776 18.4013C130.683 18.4013 129.068 19.319 128.921 21.3013H124.443C124.59 16.5291 128.444 14.914 132.776 14.914C138.209 14.914 141.402 17.4836 141.402 22.8065V34.5905H136.814V31.1031C135.566 33.5259 133.179 35.031 129.802 35.031C125.47 35.031 123.378 32.5714 123.378 29.3411C123.378 25.4867 126.462 23.7244 131.454 23.2474Z" fill="black"/>
<path d="M162.033 27.0283C162.033 24.8626 160.601 23.4305 157.481 23.4305H151.13V30.5893H157.224C160.528 30.5893 162.033 29.2305 162.033 27.0283ZM151.13 19.6132H157.004C159.83 19.6132 161.262 18.255 161.262 16.1992C161.262 14.1798 159.83 12.895 156.93 12.895H151.13V19.6131L151.13 19.6132ZM167.172 27.7259C167.172 32.3878 162.914 34.5905 157.701 34.5905H145.991V8.89349H157.444C162.363 8.89349 166.402 10.6921 166.402 15.3546C166.402 19.0622 163.868 21.0812 158.803 21.3748C163.465 21.6318 167.172 23.4305 167.172 27.7259Z" fill="#1A99FF"/>
<path d="M177.451 31.6171C180.534 31.6171 182.553 29.3779 182.553 26.5879V25.7437L178.148 26.1841C175.762 26.4044 174.33 27.3217 174.33 29.0841C174.33 30.5524 175.321 31.6171 177.451 31.6171ZM177.524 23.2474L182.553 22.7331V21.779C182.553 19.7967 181.415 18.4013 178.845 18.4013C176.753 18.4013 175.138 19.319 174.991 21.3013H170.512C170.659 16.5291 174.514 14.914 178.845 14.914C184.278 14.914 187.472 17.4836 187.472 22.8065V34.5905H182.883V31.1031C181.636 33.5259 179.249 35.031 175.872 35.031C171.54 35.031 169.448 32.5714 169.448 29.3411C169.448 25.4867 172.532 23.7244 177.524 23.2474Z" fill="#1A99FF"/>
<path d="M191.436 15.3547H196.025V18.7319C197.273 16.2357 199.622 14.9142 202.743 14.9142C207.149 14.9142 209.387 17.5206 209.387 22.3298V34.5906H204.505V23.8345C204.505 20.7147 203.514 18.9523 200.834 18.9523C197.86 18.9523 196.356 21.1547 196.356 24.4586V34.5906H191.436V15.3547Z" fill="#1A99FF"/>
<path d="M225.943 34.5905L220.033 26.8082H218.271V34.5905H213.352V7.57227H218.271V22.9902H220.07L225.649 15.3547H231.449L223.557 24.4955L232 34.5905H225.943Z" fill="#1A99FF"/>
<path d="M267.846 29.3916C267.804 28.8355 267.69 28.2947 267.483 27.7774C266.995 26.5574 266.152 25.6693 264.958 25.1159C264.446 24.8785 263.908 24.7215 263.356 24.6103C262.651 24.4689 261.938 24.4176 261.221 24.41C260.381 24.401 259.544 24.4559 258.709 24.5483C257.515 24.6804 256.33 24.8714 255.148 25.0825C254.86 25.1338 254.573 25.1927 254.286 25.2463C254.219 25.2587 254.153 25.2829 254.086 25.2659C254.05 25.1936 254.066 25.1231 254.066 25.0553C254.065 22.5928 254.065 20.1303 254.065 17.6683C254.065 17.6531 254.068 17.6371 254.065 17.6224C254.045 17.5014 254.103 17.4229 254.191 17.3461C254.516 17.0632 254.835 16.7731 255.157 16.4862C256.231 15.5281 257.305 14.5699 258.379 13.6114C259.9 12.253 261.422 10.8941 262.942 9.53523C262.987 9.49552 263.045 9.4674 263.065 9.40493C263.052 9.35985 263.015 9.37815 262.988 9.37503C262.958 9.37145 262.927 9.37413 262.896 9.37413C261.749 9.37413 260.602 9.37413 259.455 9.37413C254.912 9.37413 250.369 9.37458 245.827 9.37369C245.477 9.37369 245.517 9.4192 245.517 9.06978C245.517 6.07627 245.517 3.08321 245.517 0.0896987C245.517 0.0597992 245.51 0.0298994 245.506 0C256.334 0 267.161 0 277.989 0C277.994 0.0838968 278.002 0.16824 278.002 0.252137C278.003 2.09385 278.003 3.93556 278.002 5.77728C278.002 5.846 277.996 5.91473 277.992 5.98345C277.953 6.00755 277.911 6.02808 277.875 6.05574C277.196 6.57474 276.549 7.13034 275.933 7.72208C274.993 8.62486 274.139 9.60262 273.368 10.6527C272.822 11.3975 272.323 12.1731 271.873 12.9795C271.825 13.0656 271.76 13.1455 271.753 13.2503C271.726 13.2771 271.701 13.3066 271.672 13.3298C271.388 13.5534 271.103 13.7756 270.819 13.9987C269.633 14.9287 268.447 15.8583 267.261 16.7883C267.213 16.8262 267.164 16.8637 267.119 16.9052C267.1 16.9226 267.108 16.9498 267.131 16.9601C267.158 16.9726 267.189 16.9788 267.219 16.9838C267.873 17.0846 268.519 17.223 269.161 17.3782C269.407 17.4376 269.657 17.4845 269.892 17.5831C269.939 17.634 269.905 17.6862 269.891 17.7348C269.702 18.4082 269.536 19.087 269.413 19.7756C269.341 20.1839 269.27 20.5931 269.218 21.0041C269.171 21.3772 269.131 21.7516 269.103 22.1273C269.069 22.5642 269.046 23.0016 269.034 23.4393C269.021 23.9463 269.03 24.4532 269.056 24.9611C269.092 25.6599 269.154 26.3557 269.249 27.0487C269.337 27.7038 269.458 28.3527 269.607 28.9966C269.894 30.2345 270.284 31.439 270.776 32.6109C271.463 34.2491 272.339 35.7807 273.389 37.2132C273.944 37.9709 274.549 38.6872 275.193 39.3713C275.367 39.5556 275.536 39.7457 275.734 39.9054C275.514 40.1741 275.254 40.4017 274.994 40.6302C274.385 41.1657 273.717 41.6173 273.019 42.0279C271.909 42.6812 270.748 43.2229 269.531 43.6478C269.474 43.6679 269.413 43.6808 269.354 43.6973C269.352 43.6281 269.347 43.5603 269.323 43.4934" fill="#009BFF"/>
<path d="M294.661 12.0896C294.485 12.0892 294.308 12.0896 294.131 12.0888C291.242 12.0798 288.678 12.9951 286.455 14.8337C284.635 16.3385 283.383 18.2329 282.685 20.4896C282.37 21.5089 282.206 22.5535 282.181 23.6201C282.179 23.7192 282.193 23.82 282.161 23.9173C281.929 23.8914 281.704 23.9561 281.475 23.9758C281.24 23.9959 281.01 24.0588 280.771 24.0597C280.741 24.0597 280.711 24.0717 280.681 24.0757C280.507 24.1007 280.334 24.14 280.16 24.1454C279.93 24.1529 279.705 24.2239 279.473 24.198C279.459 24.1962 279.441 24.1976 279.428 24.2034C279.31 24.2533 279.186 24.24 279.064 24.2422C279.018 24.2431 278.968 24.2351 278.926 24.2502C278.784 24.3024 278.638 24.2846 278.492 24.2886C278.439 24.2899 278.381 24.2797 278.332 24.2962C278.181 24.3471 278.028 24.3314 277.875 24.335C277.806 24.3368 277.732 24.3243 277.669 24.3457C277.541 24.3895 277.411 24.3779 277.281 24.381C277.135 24.3841 276.985 24.3654 276.844 24.3935C276.706 24.4216 276.571 24.4256 276.433 24.4269C276.249 24.4287 276.064 24.4265 275.88 24.4283C275.818 24.4292 275.754 24.4278 275.697 24.4461C275.614 24.4729 275.531 24.4729 275.447 24.4729C274.139 24.4729 272.832 24.4725 271.525 24.4725C271.52 24.4269 271.512 24.381 271.512 24.3355C271.514 23.7219 271.509 23.1087 271.551 22.4951C271.593 21.8748 271.656 21.2581 271.744 20.6431C271.855 19.8684 272.012 19.1031 272.202 18.3444C272.229 18.248 272.255 18.1521 272.281 18.0557C273.036 15.2813 274.28 12.7456 276.004 10.4447C276.354 9.97794 276.731 9.53213 277.104 9.08408C277.357 8.81187 277.609 8.53965 277.862 8.26743C277.914 8.21209 277.974 8.16434 278.008 8.09428C278.09 8.0617 278.142 7.99253 278.201 7.93363C279.959 6.20125 281.947 4.7933 284.164 3.70888C285.705 2.9556 287.313 2.39063 288.984 2.0073C289.748 1.83192 290.521 1.69848 291.301 1.60477C292.704 1.43653 294.109 1.3928 295.519 1.48473C296.233 1.53158 296.943 1.61905 297.652 1.72169C297.704 1.72928 297.756 1.74757 297.808 1.76096C297.809 1.7739 297.81 1.7864 297.811 1.79934C297.68 1.97963 297.552 2.16126 297.419 2.33976C296.937 2.98907 296.537 3.68925 296.163 4.40371C295.988 4.73707 295.841 5.08426 295.691 5.42922C295.519 5.82371 295.365 6.22445 295.223 6.6301C294.962 7.37669 294.747 8.13623 294.577 8.90826C294.505 9.23715 294.439 9.56694 294.381 9.8994C294.334 10.1783 294.296 10.4595 294.242 10.7366C294.215 10.8736 294.214 11.011 294.193 11.1471C294.162 11.3511 294.128 11.5559 294.117 11.7612C294.101 12.07 294.086 12.0499 294.393 12.0557C294.483 12.0571 294.578 12.0294 294.661 12.0896Z" fill="#009BFF"/>
<path d="M269.323 43.4921C269.347 43.559 269.352 43.6268 269.354 43.696Z" fill="#0069B8"/>
<path d="M271.525 24.472C272.833 24.4724 274.14 24.4724 275.448 24.4724C275.532 24.4724 275.615 24.4724 275.698 24.4456C275.755 24.4273 275.819 24.4287 275.881 24.4278C276.065 24.4256 276.25 24.4278 276.434 24.4265C276.572 24.4251 276.707 24.4211 276.845 24.393C276.986 24.3644 277.136 24.3832 277.282 24.3805C277.412 24.3778 277.542 24.389 277.67 24.3452C277.732 24.3238 277.807 24.3363 277.876 24.3345C278.029 24.331 278.183 24.3466 278.333 24.2957C278.381 24.2792 278.439 24.2899 278.493 24.2881C278.638 24.2841 278.785 24.3019 278.927 24.2497C278.968 24.2346 279.019 24.2426 279.065 24.2417C279.187 24.2395 279.311 24.2529 279.429 24.2029C279.442 24.1971 279.46 24.1957 279.474 24.1975C279.706 24.2234 279.93 24.1524 280.161 24.1449C280.335 24.1391 280.508 24.0998 280.682 24.0752C280.712 24.0708 280.742 24.0592 280.772 24.0592C281.01 24.0583 281.241 23.9949 281.476 23.9753C281.705 23.9561 281.93 23.8909 282.162 23.9168C282.192 24.0146 282.179 24.115 282.181 24.2145C282.21 25.7634 282.543 27.2459 283.165 28.6628C284.551 31.825 287.264 34.2397 290.561 35.2514C290.898 35.3549 291.24 35.4464 291.587 35.516C291.647 35.5281 291.705 35.5477 291.764 35.5642C291.791 35.6151 291.858 35.5874 291.891 35.628C291.701 35.7967 291.514 35.9676 291.322 36.1336C289.981 37.2984 288.638 38.4618 287.296 39.6256C285.867 40.8653 284.438 42.1055 283.01 43.3452C282.986 43.3653 282.962 43.3845 282.94 43.4059C282.894 43.4496 282.85 43.4527 282.796 43.4179C282.719 43.3679 282.636 43.3247 282.557 43.2774C280.489 42.051 278.665 40.532 277.076 38.7291C277.016 38.6608 276.97 38.5773 276.881 38.5385C276.874 38.4997 276.859 38.4667 276.833 38.4363C276.738 38.3252 276.643 38.2136 276.552 38.1003C275.908 37.3037 275.316 36.471 274.781 35.5977C274.214 34.6717 273.718 33.7078 273.293 32.7095C272.912 31.8183 272.589 30.9057 272.331 29.9712C272.184 29.438 272.05 28.9015 271.944 28.3589C271.842 27.839 271.754 27.3169 271.691 26.7903C271.638 26.348 271.579 25.9067 271.562 25.4609C271.559 25.4073 271.559 25.3529 271.552 25.2998C271.514 25.0249 271.516 24.7487 271.525 24.472Z" fill="#008DE3"/>
<path d="M294.661 12.0896C294.578 12.0298 294.483 12.0571 294.393 12.0553C294.086 12.0495 294.101 12.0696 294.118 11.7607C294.128 11.555 294.163 11.3506 294.194 11.1467C294.215 11.0106 294.215 10.8731 294.242 10.7361C294.297 10.459 294.334 10.1779 294.382 9.89895C294.439 9.56649 294.505 9.2367 294.578 8.90781C294.748 8.13578 294.963 7.37624 295.223 6.62965C295.365 6.224 295.519 5.82281 295.691 5.42877C295.842 5.08381 295.988 4.73662 296.163 4.40326C296.538 3.6888 296.937 2.98862 297.42 2.33931C297.552 2.16081 297.681 1.97918 297.811 1.79889C297.892 1.79934 297.973 1.79978 298.053 1.80023C298.306 1.82343 298.552 1.88457 298.799 1.93768C299.249 2.03407 299.698 2.13448 300.137 2.27371C300.159 2.31387 300.198 2.30495 300.233 2.30539C300.432 2.33306 300.619 2.40625 300.809 2.46605C303.959 3.46165 306.761 5.06685 309.205 7.28789C311.698 9.55265 313.59 12.2432 314.884 15.3518C315.008 15.6477 315.026 15.5678 314.779 15.7842C314.339 16.1693 313.896 16.5518 313.454 16.9338C313.39 16.9887 313.322 17.0378 313.255 17.09C313.186 17.0895 313.113 17.0748 313.049 17.0922C312.882 17.1359 312.713 17.1275 312.545 17.1324C312.499 17.1337 312.45 17.1288 312.408 17.1431C312.303 17.1792 312.196 17.1743 312.089 17.177C312.036 17.1783 311.981 17.1752 311.928 17.1837C311.649 17.2292 311.367 17.2538 311.085 17.2703C311.054 17.2721 311.023 17.2721 310.993 17.277C310.759 17.318 310.525 17.3537 310.288 17.3631C310.242 17.3649 310.197 17.3765 310.151 17.3832C310.001 17.4059 309.85 17.4416 309.698 17.4488C309.429 17.4617 309.168 17.5251 308.903 17.559C308.472 17.6143 308.044 17.6996 307.616 17.7781C307.218 17.8513 306.821 17.9312 306.424 18.012C306.229 18.0517 306.036 18.0994 305.842 18.1445C305.507 18.223 305.172 18.2985 304.838 18.3837C304.748 18.4069 304.66 18.4247 304.567 18.427C304.529 18.3605 304.489 18.2949 304.451 18.2279C302.861 15.4339 300.538 13.5458 297.467 12.5814C297.122 12.473 296.769 12.3958 296.417 12.3123C296.373 12.2668 296.314 12.2824 296.26 12.278C296.235 12.2744 296.211 12.2713 296.186 12.2677C296.126 12.2141 296.051 12.24 295.983 12.2298L295.972 12.2333L295.963 12.2266C295.882 12.161 295.786 12.1954 295.697 12.1847C295.675 12.1829 295.652 12.1807 295.63 12.1789C295.601 12.149 295.563 12.1445 295.524 12.1436C295.448 12.1419 295.37 12.1396 295.294 12.1378C295.267 12.1356 295.241 12.1334 295.215 12.1311C295.179 12.0968 295.134 12.0986 295.09 12.0977C294.957 12.095 294.824 12.0928 294.691 12.0905L294.675 12.0945L294.661 12.0896Z" fill="#0069B8"/>
<path d="M271.525 24.472C271.516 24.7487 271.513 25.0249 271.551 25.3003C271.558 25.3534 271.559 25.4078 271.561 25.4614C271.579 25.9067 271.637 26.3485 271.691 26.7908C271.754 27.3173 271.842 27.8395 271.944 28.3594C272.05 28.902 272.184 29.4389 272.331 29.9717C272.589 30.9066 272.912 31.8188 273.292 32.71C273.718 33.7082 274.213 34.6722 274.78 35.5981C275.315 36.4715 275.907 37.3046 276.551 38.1008C276.643 38.2146 276.738 38.3257 276.832 38.4368C276.858 38.4671 276.874 38.5006 276.88 38.539C276.581 38.9446 276.272 39.3418 275.929 39.7118C275.867 39.7783 275.8 39.8398 275.735 39.9037C275.536 39.7439 275.367 39.5538 275.194 39.3695C274.55 38.6854 273.945 37.9696 273.389 37.2114C272.339 35.7784 271.463 34.2473 270.776 32.6091C270.284 31.4372 269.894 30.2328 269.607 28.9948C269.458 28.3509 269.338 27.702 269.249 27.0469C269.155 26.3534 269.092 25.6582 269.057 24.9593C269.031 24.4519 269.022 23.945 269.035 23.4376C269.046 22.9998 269.07 22.5625 269.103 22.1256C269.132 21.7498 269.172 21.3754 269.219 21.0023C269.27 20.5913 269.341 20.1821 269.414 19.7738C269.536 19.0852 269.703 18.4064 269.892 17.733C269.905 17.6844 269.939 17.6322 269.892 17.5813C269.955 17.592 270.021 17.5813 270.079 17.6197L270.08 17.6295L270.092 17.6259C270.246 17.6531 270.395 17.7022 270.541 17.7576L270.542 17.7678L270.553 17.7643C270.596 17.7759 270.639 17.7875 270.682 17.7991L270.682 17.8111L270.695 17.8071C270.829 17.8499 270.964 17.8932 271.098 17.9361V17.9486L271.111 17.9446C271.153 17.9579 271.194 17.9709 271.235 17.9843V17.9959L271.247 17.9923C271.275 18.0008 271.303 18.0093 271.33 18.0177L271.336 18.0338L271.349 18.0235C271.634 18.1302 271.919 18.2364 272.204 18.3431C272.014 19.1017 271.857 19.867 271.746 20.6417C271.658 21.2567 271.595 21.8734 271.553 22.4937C271.511 23.1073 271.516 23.7205 271.514 24.3341C271.513 24.3805 271.521 24.4265 271.525 24.472Z" fill="#181C54"/>
<path d="M304.568 18.4278C304.661 18.4256 304.749 18.4077 304.839 18.3845C305.172 18.2989 305.508 18.2234 305.843 18.1453C306.037 18.1003 306.23 18.0525 306.425 18.0128C306.821 17.932 307.219 17.8526 307.617 17.779C308.045 17.7 308.473 17.6152 308.904 17.5599C309.169 17.5259 309.43 17.4621 309.699 17.4496C309.851 17.4425 310.001 17.4068 310.152 17.384C310.198 17.3773 310.243 17.3653 310.288 17.3639C310.526 17.3546 310.76 17.3189 310.993 17.2778C311.023 17.2725 311.055 17.2729 311.085 17.2711C311.368 17.2546 311.649 17.2301 311.929 17.1845C311.982 17.1761 312.036 17.1792 312.09 17.1779C312.197 17.1752 312.304 17.1801 312.409 17.1439C312.451 17.1292 312.5 17.1346 312.546 17.1332C312.714 17.1283 312.883 17.1372 313.049 17.0931C313.114 17.0761 313.187 17.0908 313.256 17.0908C313.079 17.2845 312.87 17.442 312.673 17.6134C311.193 18.9009 309.71 20.1852 308.228 21.4709C307.513 22.0912 306.799 22.711 306.084 23.3313C306.061 23.3514 306.037 23.3719 306.014 23.3916C305.99 23.4108 305.967 23.4353 305.934 23.4277C305.894 23.4179 305.903 23.38 305.902 23.3519C305.894 23.0207 305.855 22.6927 305.812 22.3647C305.699 21.4843 305.482 20.6301 305.172 19.7983C305.008 19.3583 304.817 18.9303 304.602 18.5131C304.588 18.4854 304.579 18.4564 304.568 18.4278Z" fill="#009BFF"/>
<path d="M278.009 8.09293C277.974 8.16299 277.914 8.21074 277.863 8.26608C277.61 8.53829 277.357 8.81051 277.105 9.08228C277.011 9.14878 276.915 9.21215 276.825 9.2831C275.51 10.3126 274.197 11.3439 272.882 12.3734C272.507 12.6671 272.129 12.9572 271.752 13.249C271.759 13.1441 271.825 13.0643 271.873 12.9781C272.323 12.1717 272.822 11.3957 273.368 10.6513C274.139 9.60129 274.992 8.62353 275.932 7.72075C276.548 7.12901 277.196 6.57341 277.875 6.05441C277.911 6.02674 277.953 6.00577 277.992 5.98212C277.996 6.06601 278.003 6.14946 278.003 6.23336C278.006 6.85322 278.007 7.47307 278.009 8.09293Z" fill="#181C54"/>
<path d="M299.353 29.0917L297.84 34.3263C297.502 35.6419 296.881 36.0087 295.65 36.0087C295.472 36.0087 295.218 35.9993 294.917 35.9712V34.8435C295.142 34.8529 295.378 34.8623 295.565 34.8623C296.073 34.8623 296.355 34.7587 296.496 34.167L296.533 34.0166H295.65L293.995 29.0917H295.574L296.834 33.3776L297.792 29.0917H299.353Z" fill="#009BFF"/>
<path d="M300.011 27.1553H301.571V28.4522H300.011V27.1553ZM300.049 29.0917H301.524V34.0166H300.049V29.0917Z" fill="#009BFF"/>
<path d="M304.109 27.0991V34.0162H302.634V27.0991H304.109Z" fill="#009BFF"/>
<path d="M295.556 42.5959C295.603 43.2443 295.923 43.7709 296.985 43.7709C297.568 43.7709 298.16 43.6018 298.16 43.0944C298.16 42.7186 297.859 42.5683 297.155 42.3331L295.773 41.8725C294.739 41.5343 294.354 40.8859 294.354 40.0964C294.354 38.7242 295.529 38.1699 296.816 38.1699C298.273 38.1699 299.382 38.9125 299.485 40.2941L298.047 40.3789C298.001 39.8434 297.69 39.3735 296.798 39.3735C296.158 39.3735 295.895 39.6274 295.895 39.975C295.895 40.3133 296.168 40.4918 296.713 40.6703L298.094 41.1309C299.1 41.4504 299.701 41.9484 299.701 42.973C299.701 44.364 298.583 44.9749 296.966 44.9749C295.143 44.9749 294.184 44.1668 294.109 42.6535L295.556 42.5959Z" fill="black"/>
<path d="M300.538 38.0004H302.098V39.2972H300.538V38.0004ZM300.575 39.9362H302.05V44.8612H300.575V39.9362Z" fill="black"/>
<path d="M307.427 43.7143V44.8607H302.765V43.8553L305.453 41.0827H302.962V39.9362H307.332V40.9416L304.635 43.7143H307.427Z" fill="black"/>
<path d="M310.331 37.9437H311.806V40.6127C312.172 40.0674 312.737 39.8233 313.338 39.8233C314.551 39.8233 315.472 40.7725 315.472 42.3987C315.472 44.0248 314.551 44.974 313.347 44.974C312.69 44.974 312.069 44.6733 311.703 44.0061V44.8611H310.33V37.9437H310.331ZM312.868 43.8272C313.583 43.8272 314.005 43.2443 314.005 42.3987C314.005 41.553 313.582 40.9702 312.868 40.9702C312.163 40.9702 311.741 41.553 311.741 42.3987C311.741 43.2443 312.163 43.8272 312.868 43.8272Z" fill="black"/>
<path d="M316.327 38.0004H317.887V39.2972H316.327V38.0004ZM316.365 39.9362H317.84V44.8612H316.365V39.9362Z" fill="black"/>
<path d="M320.425 37.9437V44.8607H318.949V37.9437H320.425Z" fill="black"/>
<path d="M323.432 41.9006L324.635 41.7877V41.6561C324.635 41.1674 324.381 40.8667 323.799 40.8573C323.32 40.8573 322.972 41.0639 322.934 41.487H321.581C321.618 40.2276 322.671 39.8233 323.798 39.8233C325.227 39.8233 326.111 40.4905 326.111 41.9662V44.8611H324.738V44.0248C324.391 44.617 323.808 44.974 322.972 44.974C321.863 44.974 321.308 44.335 321.308 43.4889C321.308 42.4643 322.144 42.0225 323.432 41.9006ZM323.451 43.9588C324.156 43.9588 324.635 43.442 324.635 42.8498V42.662L323.63 42.7655C323.104 42.8123 322.765 43.01 322.765 43.4139C322.764 43.7424 323 43.9588 323.451 43.9588Z" fill="black"/>
<path d="M327.154 39.9362H328.526V40.7538C328.864 40.1335 329.457 39.8233 330.227 39.8233C331.383 39.8233 331.947 40.5284 331.947 41.7784V44.8611H330.472V42.2295C330.472 41.4776 330.275 41.0358 329.645 41.0358C328.959 41.0358 328.63 41.5619 328.63 42.342V44.8607H327.154V39.9362H327.154Z" fill="black"/>
<path d="M333.131 43.2724H334.738V44.8607H333.131V43.2724ZM333.329 42.5772L333.188 38.2819H334.692L334.541 42.5772H333.329Z" fill="black"/>
<path d="M269.323 43.492C269.187 43.1167 269.061 42.7374 268.917 42.3652C268.797 42.0502 268.662 41.7396 268.524 41.4312C268.358 41.0595 268.192 40.6868 268.006 40.3249C267.901 40.1201 267.792 39.917 267.684 39.7131C267.659 39.6654 267.634 39.6176 267.606 39.5716C267.4 39.2294 267.194 38.8871 266.987 38.5461C266.708 38.0865 266.402 37.6438 266.081 37.2118C265.849 36.8972 265.606 36.5902 265.358 36.2872C265.09 35.9601 264.82 35.6365 264.528 35.3308C264.475 35.2759 264.408 35.2309 264.398 35.1461C264.475 35.1122 264.551 35.076 264.629 35.0448C265.161 34.8315 265.658 34.5566 266.105 34.1973C266.868 33.5846 267.371 32.8001 267.636 31.8625C267.865 31.0534 267.91 30.2274 267.846 29.3925" fill="#009BFF"/>
<path d="M269.355 43.696C269.196 43.7723 269.028 43.8209 268.858 43.8633C268.821 43.8669 268.78 43.8615 268.754 43.8981C268.58 43.9615 268.404 44.0164 268.222 44.0512C268.18 44.0521 268.137 44.0476 268.108 44.0865C267.916 44.1467 267.724 44.2029 267.525 44.2346C267.471 44.2395 267.412 44.2239 267.369 44.2743C266.995 44.3725 266.619 44.4586 266.236 44.5131C266.18 44.5158 266.121 44.5001 266.074 44.547C265.866 44.5898 265.658 44.6345 265.446 44.6501C265.361 44.6599 265.27 44.6309 265.192 44.6902L265.18 44.6969C265.18 44.6969 265.166 44.6934 265.166 44.6934C265.069 44.7094 264.964 44.6702 264.873 44.7349C264.588 44.7808 264.302 44.821 264.013 44.8339C263.903 44.8362 263.792 44.8384 263.682 44.8406C263.644 44.8415 263.608 44.8473 263.58 44.8754C263.557 44.8768 263.534 44.8777 263.512 44.879C263.375 44.8804 263.238 44.8821 263.101 44.8835C263.055 44.8839 263.009 44.8844 262.974 44.9205C262.938 44.9223 262.901 44.9236 262.866 44.9254C262.614 44.9272 262.361 44.929 262.109 44.9312C262.056 44.9317 262 44.9236 261.96 44.9705C261.609 45.0017 261.257 45.0008 260.904 44.9995C260.606 44.9982 260.307 45.0013 260.01 44.9709C259.983 44.9406 259.948 44.9312 259.91 44.9317C259.753 44.933 259.596 44.9348 259.438 44.9366C259.289 44.9491 259.139 44.9375 258.991 44.9196C258.954 44.8835 258.907 44.887 258.861 44.8857C258.731 44.883 258.6 44.8808 258.47 44.8786C258.444 44.8763 258.417 44.8746 258.391 44.8723C258.363 44.8451 258.327 44.8397 258.29 44.8389C258.195 44.8371 258.1 44.8348 258.006 44.8331C257.98 44.8308 257.954 44.8286 257.929 44.8264C257.823 44.7603 257.704 44.8014 257.591 44.7862C257.566 44.7835 257.539 44.7808 257.513 44.7782C257.424 44.7184 257.321 44.7518 257.225 44.7389C257.102 44.7438 256.986 44.7036 256.866 44.6876C256.791 44.6282 256.701 44.6595 256.619 44.647L256.605 44.6501L256.593 44.6429C256.519 44.5831 256.429 44.6126 256.346 44.6005C255.897 44.5385 255.455 44.4359 255.014 44.3297C253.473 43.9597 251.997 43.4189 250.601 42.6656C249.335 41.9819 248.167 41.1608 247.142 40.146C245.776 38.7934 244.771 37.2056 244.078 35.4179C243.673 34.3754 243.386 33.3004 243.192 32.1994C243.119 31.7902 243.06 31.3797 243.011 30.9673C243.007 30.937 243.003 30.9062 243.001 30.8754C242.996 30.7995 243.011 30.7763 243.086 30.771C243.416 30.7478 243.747 30.7281 244.077 30.7058C244.906 30.6496 245.736 30.592 246.565 30.5367C246.903 30.5144 247.241 30.497 247.579 30.4773C247.735 30.4755 247.892 30.4737 248.049 30.4711C248.093 30.4706 248.139 30.4769 248.173 30.4372C248.653 30.4046 249.134 30.372 249.614 30.3394C249.77 30.3372 249.926 30.3354 250.082 30.3327C250.125 30.3318 250.172 30.3385 250.206 30.2993C250.68 30.2649 251.155 30.2261 251.63 30.1975C251.867 30.1832 252.103 30.1426 252.342 30.1547C252.513 30.1524 252.684 30.1502 252.856 30.1475C252.9 30.1471 252.946 30.1529 252.979 30.1127C253.227 30.0904 253.475 30.0574 253.725 30.0614C253.877 30.0574 254.029 30.0534 254.182 30.0498C254.253 30.1815 254.253 30.3318 254.283 30.4733C254.433 31.1588 254.635 31.8268 254.936 32.4618C255.212 33.0429 255.561 33.573 256.016 34.0318C256.581 34.6012 257.259 34.9805 258.015 35.23C258.41 35.3603 258.814 35.4549 259.226 35.5147C259.31 35.5267 259.392 35.5459 259.475 35.562C259.501 35.5946 259.538 35.5973 259.576 35.5977C259.666 35.599 259.755 35.6008 259.845 35.6026C259.86 35.5968 259.874 35.5982 259.888 35.6071C259.91 35.6298 259.936 35.6423 259.967 35.6419C260.087 35.641 260.206 35.6401 260.326 35.6392C260.456 35.6401 260.585 35.641 260.715 35.6419C261.104 35.645 261.494 35.6472 261.883 35.6102C261.966 35.6022 262.05 35.6053 262.134 35.6031C262.237 35.6013 262.341 35.599 262.444 35.5973C262.482 35.5968 262.518 35.5932 262.544 35.5611C262.667 35.541 262.789 35.5053 262.915 35.5089C262.991 35.4955 263.077 35.5325 263.145 35.4687C263.461 35.3889 263.778 35.3085 264.094 35.2286C264.197 35.2028 264.292 35.1488 264.4 35.1434C264.41 35.2287 264.477 35.2737 264.529 35.3282C264.821 35.6339 265.092 35.9574 265.359 36.2845C265.608 36.5875 265.85 36.8945 266.083 37.2091C266.404 37.6411 266.709 38.0838 266.989 38.5435C267.196 38.8849 267.402 39.2271 267.608 39.569C267.635 39.6149 267.66 39.6631 267.685 39.7104C267.793 39.9144 267.903 40.1174 268.008 40.3223C268.194 40.6842 268.36 41.0568 268.526 41.4285C268.664 41.7369 268.798 42.0475 268.919 42.3626C269.063 42.7352 269.189 43.1141 269.325 43.4894" fill="#0069B8"/>
</g>
<defs>
<clipPath id="clip0_6792_77249">
<rect width="335" height="45" fill="white"/>
</clipPath>
</defs>
</svg>
